<svg width="83" height="40" viewBox="0 0 83 40" fill="none" xmlns="http://www.w3.org/2000/svg">
<path fill-rule="evenodd" clip-rule="evenodd" d="M25.3328 0.51595C19.9173 1.4336 17.2687 2.77346 11.2936 7.61808C9.24597 9.27837 6.7682 10.9859 5.78737 11.4123C1.79845 13.1476 1.75227 13.2124 1.41671 17.564C1.30464 19.0166 0.932589 21.1167 0.589926 22.2312C-0.0479259 24.3059 -0.168392 26.543 0.227884 28.9702C0.542449 30.8996 1.65861 31.6943 4.69898 32.1542L7.17998 32.5296L7.63181 34.0075C8.13434 35.6523 10.0275 37.9689 11.6575 38.9341C12.4704 39.4155 13.459 39.5662 15.816 39.569C18.6959 39.5718 19.0175 39.4989 20.499 38.5052C21.5802 37.7805 22.4002 36.8534 23.0588 35.6121L24.0277 33.7856L39.9029 33.7737L55.7781 33.762L56.6379 35.3614C57.7069 37.3506 59.6201 38.8919 61.9283 39.6236C66.0868 40.9416 70.9047 38.6743 72.2709 34.7565L72.5984 33.8173L76.9697 33.7015C81.1556 33.5909 81.3755 33.5479 82.1622 32.6891C82.659 32.1472 82.99 31.3806 82.9987 30.7524C83.0323 28.3822 82.3906 21.8825 82.0557 21.1998C80.8698 18.7834 75.8574 15.3822 71.8261 14.2579C69.4898 13.6061 63.703 12.6342 62.1599 12.6342C61.2194 12.6342 60.5344 12.1423 57.7172 9.44211C51.6377 3.61611 47.6705 1.22585 42.598 0.33249C39.6371 -0.189015 28.8143 -0.0738687 25.3328 0.51595ZM33.1607 8.67271C33.2305 12.2761 33.1569 13.3395 32.8378 13.3437C32.6107 13.3465 28.6854 13.4476 24.1155 13.5687C14.4024 13.8261 14.5678 13.8913 16.6389 10.6126C19.5475 6.00778 24.443 3.78584 31.2943 3.96155L33.0706 4.00698L33.1607 8.67271ZM43.366 4.73096C44.5881 5.00034 46.2275 5.55811 47.0094 5.97081C48.6368 6.82966 53.1957 10.6165 52.7465 10.7362C52.5824 10.7802 51.9026 10.9154 51.2353 11.0373C50.24 11.2186 49.9386 11.4767 49.5562 12.4743L49.0902 13.6906H43.2666C36.5796 13.6906 37.3053 14.1564 36.9575 9.64107C36.8532 8.28537 36.6781 6.40499 36.5683 5.46269L36.3687 3.74922L38.7567 3.99536C40.0702 4.13093 42.1443 4.46193 43.366 4.73096ZM76.855 19.5888C79.7497 21.1874 79.1574 22.9076 75.9245 22.2903C74.4741 22.0132 73.4222 21.3301 72.943 20.3536C72.0002 18.4327 74.0397 18.0341 76.855 19.5888ZM19.6677 21.1276C21.711 22.1121 23.9466 24.8334 24.8318 27.4142L25.5598 29.5365H39.8922C53.3255 29.5365 54.225 29.4977 54.2279 28.9202C54.2347 27.5635 55.8124 24.6985 57.4207 23.1217C61.6089 19.0162 67.5362 19.0489 71.342 23.1985C72.7795 24.7658 74.0594 27.4349 74.4237 29.6245C74.6314 30.8746 74.5981 30.945 73.7998 30.945C73.0996 30.945 72.9536 30.7809 72.9384 29.9766C72.9284 29.4442 72.6743 28.3646 72.3733 27.5783C70.3157 22.1998 64.4571 20.0765 59.831 23.0323C57.6206 24.4446 55.8395 27.5008 55.8395 29.8805V30.9517L39.9391 30.8601L24.0386 30.7689L23.8452 29.4706C23.3478 26.1345 20.8009 22.9506 17.9585 22.1121C16.1577 21.5811 13.313 21.8896 11.6902 22.7921C9.972 23.7478 7.84884 26.4102 7.49455 28.0533C7.26363 29.1252 7.05273 29.3808 6.32316 29.4731C5.49734 29.5777 5.4489 29.5146 5.64817 28.5928C6.00601 26.9342 7.45902 24.2661 8.59779 23.1759C11.7522 20.1564 16.015 19.3676 19.6677 21.1276ZM17.8862 26.0768C19.1994 26.7289 20.1104 28.4727 20.2519 30.6041C20.3666 32.3338 20.2787 32.6968 19.5017 33.7036C17.3104 36.5428 13.9829 36.5847 11.8336 33.7997C10.2162 31.7038 10.3686 28.8498 12.1998 26.9367C13.7164 25.3528 15.796 25.0383 17.8862 26.0768ZM66.2806 25.7912C69.6749 27.3374 70.3961 32.3641 67.5617 34.7212C66.5706 35.5452 66.0739 35.6988 64.398 35.6988C62.7222 35.6988 62.2254 35.5452 61.2343 34.7212C56.8878 31.1066 61.1994 23.4763 66.2806 25.7912ZM14.0966 27.804C13.1906 28.3794 12.4956 30.1643 12.7282 31.3186C13.3537 34.424 17.8103 34.5057 18.5195 31.4246C19.1093 28.8628 16.191 26.474 14.0966 27.804ZM62.5074 28.2871C61.6541 29.1495 61.3751 30.8024 61.8534 32.1616C62.1189 32.9159 63.66 33.762 64.7681 33.762C66.0706 33.762 67.4662 32.1658 67.4662 30.676C67.4662 27.9374 64.3425 26.4328 62.5074 28.2871Z" fill="#D94A4A"/>
</svg>
